<?xml version="1.0" encoding="utf-8"?>
<!-- Generator: Adobe Illustrator 24.3.0, SVG Export Plug-In . SVG Version: 6.00 Build 0)  -->
<svg version="1.1" id="Слой_1" xmlns="http://www.w3.org/2000/svg" xmlns:xlink="http://www.w3.org/1999/xlink" x="0px" y="0px"
	 viewBox="0 0 87.9 90.9" style="enable-background:new 0 0 87.9 90.9;" xml:space="preserve">
<style type="text/css">
	.st0{opacity:0.25;}
	.st1{fill:#FFFFFF;}
	.st2{fill:#4D4D4D;}
</style>
<g id="Слой_2_1_">
	<g id="Слой_1-2">
		<g class="st0">
			<path d="M74.3,15.2l6.3-6.3c1.7-1.7,4.3-1.7,6,0c0.8,0.8,1.2,1.9,1.2,3v23.8c0,2.3-1.9,4.2-4.2,4.2H59.9c-2.3,0-4.2-1.9-4.2-4.3
				c0-1.1,0.4-2.2,1.2-3l7.4-7.4c-12-11.2-30.9-10.6-42.1,1.4s-10.6,30.9,1.4,42.1c11.2,10.4,28.4,10.7,39.9,0.7
				c0.8-0.7,2.1-0.7,2.9,0.1l7,7c0.8,0.8,0.8,2.2,0,3c0,0,0,0-0.1,0.1c-18,16.3-45.8,14.9-62.1-3.1s-14.9-45.8,3.1-62.1
				C31.5-1.2,57.6-0.8,74.3,15.2L74.3,15.2z"/>
		</g>
		<path class="st1" d="M74.3,12.2l6.3-6.3c1.7-1.7,4.3-1.7,6,0c0.8,0.8,1.2,1.9,1.2,3v23.8c0,2.3-1.9,4.2-4.2,4.2H59.9
			c-2.3,0-4.2-1.9-4.2-4.3c0-1.1,0.4-2.2,1.2-3l7.4-7.4c-12-11.2-30.9-10.6-42.1,1.4s-10.6,30.9,1.4,42.1
			c11.2,10.4,28.4,10.7,39.9,0.7c0.8-0.7,2.1-0.7,2.9,0.1l7,7c0.8,0.8,0.8,2.2,0,3c0,0,0,0-0.1,0.1c-18,16.3-45.8,14.9-62.1-3.1
			s-14.9-45.8,3.1-62.1C31.5-4.2,57.6-3.8,74.3,12.2L74.3,12.2z"/>
	</g>
</g>
<path class="st0" d="M64.5,157.2h-44c-3.5,0-6.3-2.8-6.3-6.3v-44c0-3.5,2.8-6.3,6.3-6.3h44c3.5,0,6.3,2.8,6.3,6.3v44
	C70.8,154.4,68,157.2,64.5,157.2z"/>
<path class="st1" d="M64.5,154.2h-44c-3.5,0-6.3-2.8-6.3-6.3v-44c0-3.5,2.8-6.3,6.3-6.3h44c3.5,0,6.3,2.8,6.3,6.3v44
	C70.8,151.4,68,154.2,64.5,154.2z"/>
<g>
	<path class="st2" d="M168,129.2c0,0.2-0.1,0.4-0.2,0.5l-1.8,2.2c-0.2,0.2-0.4,0.3-0.7,0.3c-0.2,0-0.4-0.1-0.5-0.2l-16.5-13.6
		c-0.1-0.1-0.3-0.2-0.5-0.2c-0.2,0-0.4,0.1-0.5,0.2L130.7,132c-0.1,0.1-0.3,0.2-0.5,0.2c-0.3,0-0.5-0.1-0.7-0.3l-1.8-2.2
		c-0.1-0.1-0.2-0.3-0.2-0.5c0-0.3,0.1-0.5,0.3-0.7l17.8-14.7c0.6-0.5,1.3-0.8,2.1-0.8s1.6,0.3,2.1,0.8l6.3,5.2V114
		c0-0.5,0.4-0.8,0.8-0.8h3.9c0.5,0,0.8,0.4,0.8,0.8v9.7l5.9,4.8C167.9,128.7,168,128.9,168,129.2z M147.8,121.1
		c0.2,0,0.4,0.1,0.5,0.2l13,10.7v11.5c0,0.6-0.5,1.1-1.1,1.1l-7.9,0c-0.6,0-1.1-0.5-1.1-1.1c0,0,0,0,0,0v-6.7c0-0.6-0.5-1.1-1.1-1.1
		h-4.5c-0.6,0-1.1,0.5-1.1,1.1v6.7c0,0.6-0.5,1.1-1.1,1.1l-7.9,0c-0.6,0-1.1-0.5-1.1-1.1V132l13-10.7
		C147.4,121.2,147.6,121.1,147.8,121.1z"/>
</g>
<g>
	<path class="st2" d="M37.4,110.5c1.1-0.9,2.8-0.2,2.8,1.3v5.6c11.3,0.1,20.2,2.4,20.2,13.1c0,4.3-2.8,8.6-5.9,10.8
		c-1,0.7-2.3-0.2-2-1.3c3.2-10.2-1.5-12.9-12.4-13.1v6.2c0,1.5-1.7,2.2-2.8,1.3l-12.4-10.7c-0.8-0.7-0.8-1.9,0-2.6L37.4,110.5z"/>
</g>
</svg>
